<svg xmlns="http://www.w3.org/2000/svg" aria-hidden="true" style="position:absolute;width:0;height:0;overflow:hidden">
    <defs>
        <symbol id="icon-facebook" viewBox="0 0 32 32">
            <path
                d="M19.52 4.64h.96v3.6h-1.2c-.48 0-.96 0-1.2.24s-.24.48-.24 1.04v1.28h2.64v3.04h-2.64v13.2h-4.08V13.76H11.6v-3.04h2.16V9.68c0-1.76.24-3.04.72-3.6.72-1.04 2.16-1.52 4.32-1.52.24.08.48.08.72.08z" />
        </symbol>
        <symbol id="icon-instagram" viewBox="0 0 32 32">
            <path
                d="M28.718 10.756a9.264 9.264 0 0 0-.596-3.145 6.547 6.547 0 0 0-3.743-3.737 9.42 9.42 0 0 0-3.108-.596c-1.368-.061-1.801-.078-5.273-.078s-3.916 0-5.274.078a9.413 9.413 0 0 0-3.106.596 6.541 6.541 0 0 0-3.743 3.737 9.288 9.288 0 0 0-.596 3.101c-.061 1.367-.08 1.8-.08 5.265s0 3.909.08 5.265a9.335 9.335 0 0 0 .596 3.104 6.548 6.548 0 0 0 3.744 3.735 9.37 9.37 0 0 0 3.106.639c1.369.061 1.803.079 5.274.079s3.916 0 5.274-.079a9.362 9.362 0 0 0 3.108-.595 6.555 6.555 0 0 0 3.743-3.737 9.35 9.35 0 0 0 .596-3.104c.061-1.365.08-1.798.08-5.265-.003-3.466-.003-3.906-.082-5.264zM15.99 22.531c-3.631 0-6.572-2.936-6.572-6.561s2.941-6.561 6.572-6.561c3.628 0 6.572 2.936 6.572 6.561s-2.944 6.561-6.572 6.561zm6.834-11.835a1.53 1.53 0 1 1 0-3.06 1.53 1.53 0 1 1 0 3.06z" />
            <path d="M15.992 19.976a4.004 4.004 0 1 0 0-8.009 4.004 4.004 0 0 0 0 8.009z" />
        </symbol>
        <symbol id="icon-youtube" viewBox="0 0 32 32">
            <path
                d="M24.24 6c-1.36-.08-4.16-.16-8.4-.16h-.56c-4.08 0-6.8.08-8.16.24-1.84.16-3.12.64-3.84 1.28-.64.56-1.12 1.6-1.28 2.96-.08.88-.16 2.72-.16 5.52v.4c0 2.64.08 4.48.24 5.36.24 1.28.64 2.24 1.44 2.8.8.64 2.16 1.04 4.08 1.2 1.36.08 4.16.16 8.4.16h.56c4.08 0 6.8-.08 8.16-.24 1.84-.16 3.12-.64 3.84-1.28.64-.56 1.12-1.6 1.28-2.96.08-.88.16-2.72.16-5.52v-.4c0-2.64-.08-4.48-.24-5.36-.24-1.28-.64-2.24-1.44-2.8-.8-.64-2.16-1.04-4.08-1.2zm-3.12 9.84-8.8 5.28V10.56l8.8 5.28z" />
        </symbol>
        <symbol id="icon-burger" viewBox="0 0 32 32">
            <path
                d="M6.37 6.879a1.5 1.5 0 0 0 0 3h24.131a1.5 1.5 0 0 0 0-3zM6.37 20.818a1.5 1.5 0 0 0 0 3h24.131a1.5 1.5 0 0 0 0-3zM14.022 13.848a1.5 1.5 0 0 0 0 3H30.5a1.5 1.5 0 0 0 0-3z" />
        </symbol>
        <symbol id="icon-cross" viewBox="0 0 32 32">
            <path
                d="M8 6.5A1.496 1.496 0 0 0 6.5 8c0 .415.168.789.439 1.061L13.878 16l-6.939 6.939c-.271.271-.439.646-.439 1.061s.168.789.439 1.061c.271.271.646.439 1.061.439s.789-.168 1.061-.439L16 18.122l6.939 6.939c.271.271.646.439 1.061.439s.789-.168 1.061-.439c.271-.271.439-.646.439-1.061s-.168-.789-.439-1.061L18.122 16l6.939-6.939c.271-.271.439-.646.439-1.061s-.168-.789-.439-1.061C24.79 6.668 24.415 6.5 24 6.5s-.789.168-1.061.439L16 13.878 9.061 6.939A1.496 1.496 0 0 0 8 6.5z" />
        </symbol>
        <symbol id="icon-checkmark" viewBox="0 0 32 32">
            <path
                d="M16.947 17.867a1.334 1.334 0 0 1-1.894 0l-6.107-6.12a1.334 1.334 0 1 0-1.894 1.88l6.12 6.12a4.001 4.001 0 0 0 5.654 0l6.12-6.12a1.337 1.337 0 0 0-.434-2.172 1.331 1.331 0 0 0-1.46.292l-6.107 6.12z" />
        </symbol>
    </defs>
</svg>