<svg xmlns="http://www.w3.org/2000/svg" aria-hidden="true" style="position:absolute;width:0;height:0;overflow:hidden">
    <defs>
        <symbol id="icon-facebook" viewBox="0 0 32 32">
            <path
                d="M19.52 4.64h.96v3.6h-1.2c-.48 0-.96 0-1.2.24s-.24.48-.24 1.04v1.28h2.64v3.04h-2.64v13.2h-4.08V13.76H11.6v-3.04h2.16V9.68c0-1.76.24-3.04.72-3.6.72-1.04 2.16-1.52 4.32-1.52.24.08.48.08.72.08z" />
        </symbol>
        <symbol id="icon-instagram" viewBox="0 0 32 32">
            <path
                d="M28.718 10.756a9.264 9.264 0 0 0-.596-3.145 6.547 6.547 0 0 0-3.743-3.737 9.42 9.42 0 0 0-3.108-.596c-1.368-.061-1.801-.078-5.273-.078s-3.916 0-5.274.078a9.413 9.413 0 0 0-3.106.596 6.541 6.541 0 0 0-3.743 3.737 9.288 9.288 0 0 0-.596 3.101c-.061 1.367-.08 1.8-.08 5.265s0 3.909.08 5.265a9.335 9.335 0 0 0 .596 3.104 6.548 6.548 0 0 0 3.744 3.735 9.37 9.37 0 0 0 3.106.639c1.369.061 1.803.079 5.274.079s3.916 0 5.274-.079a9.362 9.362 0 0 0 3.108-.595 6.555 6.555 0 0 0 3.743-3.737 9.35 9.35 0 0 0 .596-3.104c.061-1.365.08-1.798.08-5.265-.003-3.466-.003-3.906-.082-5.264zM15.99 22.531c-3.631 0-6.572-2.936-6.572-6.561s2.941-6.561 6.572-6.561c3.628 0 6.572 2.936 6.572 6.561s-2.944 6.561-6.572 6.561zm6.834-11.835a1.53 1.53 0 1 1 0-3.06 1.53 1.53 0 1 1 0 3.06z" />
            <path d="M15.992 19.976a4.004 4.004 0 1 0 0-8.009 4.004 4.004 0 0 0 0 8.009z" />
        </symbol>
        <symbol id="icon-youtube" viewBox="0 0 32 32">
            <path
                d="M24.24 6c-1.36-.08-4.16-.16-8.4-.16h-.56c-4.08 0-6.8.08-8.16.24-1.84.16-3.12.64-3.84 1.28-.64.56-1.12 1.6-1.28 2.96-.08.88-.16 2.72-.16 5.52v.4c0 2.64.08 4.48.24 5.36.24 1.28.64 2.24 1.44 2.8.8.64 2.16 1.04 4.08 1.2 1.36.08 4.16.16 8.4.16h.56c4.08 0 6.8-.08 8.16-.24 1.84-.16 3.12-.64 3.84-1.28.64-.56 1.12-1.6 1.28-2.96.08-.88.16-2.72.16-5.52v-.4c0-2.64-.08-4.48-.24-5.36-.24-1.28-.64-2.24-1.44-2.8-.8-.64-2.16-1.04-4.08-1.2zm-3.12 9.84-8.8 5.28V10.56l8.8 5.28z" />
        </symbol>
        <symbol id="icon-burger" viewBox="0 0 32 32">
            <path
                d="M6.37 6.879a1.5 1.5 0 0 0 0 3h24.131a1.5 1.5 0 0 0 0-3zM6.37 20.818a1.5 1.5 0 0 0 0 3h24.131a1.5 1.5 0 0 0 0-3zM14.022 13.848a1.5 1.5 0 0 0 0 3H30.5a1.5 1.5 0 0 0 0-3z" />
        </symbol>
        <symbol id="icon-cross" viewBox="0 0 32 32">
            <path
                d="M8 6.5A1.496 1.496 0 0 0 6.5 8c0 .415.168.789.439 1.061L13.878 16l-6.939 6.939c-.271.271-.439.646-.439 1.061s.168.789.439 1.061c.271.271.646.439 1.061.439s.789-.168 1.061-.439L16 18.122l6.939 6.939c.271.271.646.439 1.061.439s.789-.168 1.061-.439c.271-.271.439-.646.439-1.061s-.168-.789-.439-1.061L18.122 16l6.939-6.939c.271-.271.439-.646.439-1.061s-.168-.789-.439-1.061C24.79 6.668 24.415 6.5 24 6.5s-.789.168-1.061.439L16 13.878 9.061 6.939A1.496 1.496 0 0 0 8 6.5z" />
        </symbol>
        <symbol id="icon-checkmark" viewBox="0 0 32 32">
            <path
                d="M16.947 17.867a1.334 1.334 0 0 1-1.894 0l-6.107-6.12a1.334 1.334 0 1 0-1.894 1.88l6.12 6.12a4.001 4.001 0 0 0 5.654 0l6.12-6.12a1.337 1.337 0 0 0-.434-2.172 1.331 1.331 0 0 0-1.46.292l-6.107 6.12z" />
        </symbol>
        <symbol id="icon-check" viewBox="0 0 43 32">
            <path d="M37.224 0.781l-22.557 22.557-9.224-9.224c-0.483-0.482-1.149-0.781-1.885-0.781s-1.403 0.298-1.885 0.781v0c-0.482 0.483-0.781 1.149-0.781 1.885s0.298 1.403 0.781 1.885l11.109 11.109c0.483 0.482 1.149 0.781 1.885 0.781s1.403-0.298 1.885-0.781l24.443-24.443c0.482-0.483 0.781-1.149 0.781-1.885s-0.298-1.403-0.781-1.885v0c-0.483-0.482-1.149-0.781-1.885-0.781s-1.403 0.298-1.885 0.781v0z"></path>
        </symbol>
        <symbol id="icon-arrow" viewBox="0 0 12 7">
            <path fill="var(--svg-color, #4dc274)"
                d="M6.59168 4.16674C6.51421 4.24485 6.42205 4.30684 6.3205 4.34915C6.21895 4.39146 6.11003 4.41324 6.00002 4.41324C5.89001 4.41324 5.78109 4.39146 5.67954 4.34915C5.57799 4.30684 5.48582 4.24485 5.40835 4.16674L1.59168 0.341742C1.51421 0.263635 1.42204 0.201639 1.32049 0.159332C1.21894 0.117025 1.11002 0.0952434 1.00001 0.0952434C0.89 0.0952434 0.781079 0.117025 0.679529 0.159332C0.57798 0.201639 0.485812 0.263635 0.408343 0.341742C0.253134 0.497877 0.166016 0.709087 0.166016 0.929242C0.166016 1.1494 0.253134 1.36061 0.408343 1.51674L4.23335 5.34174C4.7021 5.80991 5.33751 6.07288 6.00002 6.07288C6.66252 6.07288 7.29793 5.80991 7.76669 5.34174L11.5917 1.51674C11.7456 1.36152 11.8324 1.15203 11.8334 0.933409C11.834 0.823737 11.813 0.715017 11.7715 0.613486C11.73 0.511955 11.6689 0.419609 11.5917 0.341742C11.5142 0.263635 11.4221 0.201639 11.3205 0.159332C11.219 0.117025 11.11 0.0952434 11 0.0952434C10.89 0.0952434 10.7811 0.117025 10.6795 0.159332C10.578 0.201639 10.4858 0.263635 10.4084 0.341742L6.59168 4.16674Z" />
        </symbol>
    </defs>
</svg>